<svg width="181" height="60" viewBox="0 0 181 60" fill="none" xmlns="http://www.w3.org/2000/svg">
<g clip-path="url(#clip0_116_238)">
<rect x="1" y="1" width="60.3694" height="58.2659" rx="10" fill="black"/>
<path fill-rule="evenodd" clip-rule="evenodd" d="M47.6301 -6.50605C48.1793 -8.09146 48.8624 -9.1314 49.7773 -9.77429C50.2488 -10.1056 52.2734 -10.7884 52.3139 -10.6296C52.3229 -10.5942 51.9671 -10.3843 51.5229 -10.1634C50.4463 -9.62776 49.565 -8.77199 49.0723 -7.78424C48.659 -6.95576 48.4087 -5.46746 48.5737 -4.82054C48.7272 -4.21867 48.4525 -4.17525 47.971 -4.72552C47.3756 -5.40596 47.3305 -5.64096 47.6301 -6.50605ZM46.0811 -6.67863C46.2578 -7.74123 46.3056 -7.8299 46.9 -8.20174C47.6072 -8.64387 47.8842 -8.76469 47.9149 -8.64438C47.9263 -8.59962 47.7592 -8.11888 47.5436 -7.57609C46.728 -5.52275 46.3564 -3.13883 46.5536 -1.22469C46.6568 -0.223063 46.3521 -0.607829 46.001 -1.92239C45.7298 -2.93759 45.7605 -4.74998 46.0811 -6.67863ZM45.3843 0.340753C44.7993 -1.12641 44.743 -3.76242 45.2577 -5.57843C45.3485 -5.8988 45.4605 -6.13837 45.5066 -6.11097C45.5526 -6.08356 45.5616 -5.48766 45.5265 -4.7866C45.3781 -1.8302 45.6567 -0.78235 47.1278 1.23807C49.6246 4.66725 50.16 6.19757 49.4789 7.95936C48.855 9.57307 47.1888 10.8481 44.6964 11.6187L43.1564 12.095L44.5466 11.3414C47.0215 9.99973 48.1603 8.81647 48.4033 7.33461C48.6023 6.11968 48.2289 5.05297 46.8552 2.91281C46.2085 1.90522 45.5465 0.747886 45.3843 0.340753ZM46.2524 8.64658C46.7388 8.207 47.3015 7.65612 47.503 7.42236C47.7044 7.18845 47.8881 6.99163 47.9112 6.98501C48.0662 6.93996 47.7204 7.72587 47.2806 8.41802C46.624 9.45141 45.6016 10.3049 44.3717 10.8461C43.848 11.0765 43.2007 11.3843 42.9332 11.5299C41.0742 12.5423 40.7449 14.5675 41.7245 18.9652C42.4014 22.0052 42.411 22.1341 41.9511 22.022C41.5097 21.9144 40.9945 22.1937 40.3908 22.868C40.1306 23.1587 39.8746 23.3709 39.8219 23.3394C39.7693 23.3081 39.9392 22.8119 40.1994 22.2368C41.0348 20.3903 41.0499 20.1179 40.4711 17.3405C39.9821 14.9942 39.9679 14.8219 40.1706 13.6847C40.3956 12.423 40.874 11.5323 41.6474 10.9356C41.9002 10.7405 42.8409 10.3254 43.7377 10.0133C45.1874 9.50867 45.4665 9.35698 46.2524 8.64658ZM33.5623 16.7479C33.6953 16.5421 33.8947 16.3101 34.0054 16.2324C34.4238 15.9389 34.9813 15.8713 35.2899 16.0764C35.822 16.4303 35.5309 17.1583 34.7776 17.3578C34.6092 17.4024 34.4852 17.493 34.502 17.5591C34.5189 17.6253 34.9733 17.9772 35.5119 18.3412C36.0503 18.7053 36.4665 19.0454 36.4366 19.0969C36.3527 19.2418 33.7845 19.8975 33.4246 19.8658C33.249 19.8505 32.847 19.7329 32.5315 19.6045C32.0416 19.4053 31.934 19.2784 31.7958 18.7364C31.5731 17.863 31.7951 17.314 32.4117 17.2138C32.8141 17.1484 32.9165 17.2036 33.0507 17.558C33.1487 17.816 33.1348 18.1707 33.0151 18.4717L32.8195 18.9636L33.7585 18.9551C34.2751 18.9504 34.6903 18.9177 34.6813 18.8823C34.6722 18.8468 34.4786 18.6653 34.251 18.4788C34.0233 18.2922 33.721 17.9108 33.5788 17.6309C33.3624 17.2041 33.3597 17.062 33.5623 16.7479ZM36.4874 18.8291C35.9387 18.5256 35.6657 17.6966 35.8477 16.8867C35.9557 16.4063 36.0151 16.3572 36.5713 16.2878C37.4605 16.177 38.0387 16.4172 38.1083 16.9266C38.1579 17.2884 38.1059 17.3514 37.7082 17.4114C37.4568 17.4493 37.1213 17.4119 36.9625 17.3283C36.4933 17.081 36.4628 17.1816 36.7114 18.1563L36.948 19.0838L36.4874 18.8291ZM42.138 18.8059C41.7047 17.4351 41.6084 16.4298 41.8088 15.3693C41.9588 14.5752 42.037 14.7425 42.0305 15.8444C42.0258 16.6134 42.1347 17.1338 42.5848 18.4968C43.3532 20.8232 43.5616 21.7044 43.5753 22.6842C43.5876 23.5667 43.3885 23.8619 43.2217 23.2083C43.1677 22.9963 43.0206 22.7099 42.8949 22.572C42.7316 22.3927 42.6514 22.0105 42.614 21.2337C42.58 20.5269 42.4133 19.6774 42.138 18.8059ZM20.4349 21.344C20.3963 21.1925 20.3976 21.0117 20.438 20.9423C20.545 20.7576 21.3857 20.5652 21.6758 20.6592C21.8293 20.7087 22.0171 20.6536 22.1642 20.5159C22.3388 20.3524 22.5163 20.3307 22.8226 20.4353C23.3126 20.6025 24.2207 21.5803 24.0828 21.7921C24.0309 21.872 23.7063 22.1376 23.3617 22.3823C23.017 22.6269 22.6263 23.0285 22.4936 23.2747C22.3609 23.5208 22.2013 23.7357 22.139 23.7522C22.0768 23.7686 21.7578 23.4919 21.4301 23.1371C20.8875 22.5494 20.8174 22.518 20.6451 22.7838C20.5411 22.9442 20.2444 23.1315 19.9859 23.2C19.5633 23.312 19.5044 23.2795 19.402 22.8778C19.3145 22.5349 19.3761 22.3507 19.6668 22.0861C19.8753 21.8963 20.1491 21.7136 20.2754 21.6802C20.4018 21.6467 20.4735 21.4954 20.4349 21.344ZM21.9189 22.4857C21.9285 22.4621 21.9332 22.2452 21.9289 22.0039C21.9219 21.598 21.8874 21.5739 21.4695 21.6846L21.0175 21.8043L21.4594 22.1664C21.7025 22.3655 21.9092 22.5091 21.9189 22.4857ZM22.8981 22.0056C23.0082 21.9256 23.083 21.7999 23.0641 21.7261C23.024 21.5687 22.8146 21.6027 22.7097 21.7837C22.5761 22.0138 22.6946 22.1533 22.8981 22.0056ZM22.5118 24.0909C22.2561 24.0729 22.4947 23.547 22.9981 23.0182C23.6221 22.3627 24.8423 22.2305 24.4783 22.8578C24.262 23.2307 24.4575 23.5385 25.765 24.8837C27.0042 26.1586 27.0719 26.2032 27.7619 26.1983C28.425 26.1936 29.1718 26.4402 29.2342 26.6846C29.2489 26.7423 28.927 26.8441 28.519 26.9108C27.5953 27.0618 27.2381 27.5441 27.446 28.3596C27.5198 28.6487 27.5152 28.9025 27.4358 28.9235C27.1823 28.9907 26.6184 28.2164 26.4553 27.5773C26.2725 26.8603 25.5045 25.7818 24.6816 25.0866C24.1663 24.6514 23.0232 24.1268 22.5118 24.0909ZM33.166 20.7645C33.1632 20.3746 33.2058 20.3497 34.5943 19.9311C35.3815 19.6939 36.423 19.383 36.9088 19.2404L37.7921 18.9813L36.9732 19.5625C35.965 20.278 35.0228 21.217 34.6217 21.9058C34.0735 22.8473 34.4596 22.987 35.3625 22.1737C35.64 21.9239 36.003 21.6834 36.1693 21.6393C36.4259 21.5714 36.4967 21.6559 36.6367 22.197C36.7276 22.5478 36.8698 22.8961 36.9529 22.9712C37.2403 23.2308 37.8426 23.2807 38.5564 23.1043L39.2732 22.9271L38.6265 23.4935C37.7284 24.2803 36.7597 24.4517 35.9234 23.972C35.593 23.7826 35.1724 23.6673 34.9889 23.7159C34.5143 23.8416 33.9703 24.3766 33.6703 25.0126C33.5287 25.313 33.3614 25.5282 33.2988 25.4909C33.2361 25.4536 33.09 25.0453 32.9741 24.5835C32.76 23.7304 32.8397 22.7528 33.2014 21.7943C33.3047 21.521 33.3394 21.2677 33.2788 21.2318C33.2184 21.1957 33.1674 20.9854 33.166 20.7645ZM21.9383 24.4467C21.7898 24.3762 21.6434 24.221 21.6129 24.1014C21.5338 23.7913 22.4409 24.1577 22.8418 24.598C23.3032 25.1047 23.0804 25.382 22.2545 25.3291C21.6958 25.2933 21.5738 25.3324 21.3044 25.6337C21.1344 25.8238 20.8945 26.006 20.7712 26.0387C20.4451 26.1251 19.8799 25.5506 19.901 25.1546C19.9253 24.7038 20.9444 24.4284 21.7168 24.664C22.2805 24.8359 22.4364 24.683 21.9383 24.4467ZM10.6142 32.1618C11.2143 32.3667 11.1134 32.0024 10.4351 31.5148C10.1592 31.3166 9.9972 31.1374 10.0749 31.1168C10.423 31.0246 11.1384 31.5338 11.9038 32.4187C13.1017 33.8034 14.4744 34.7777 15.5085 34.9767C16.361 35.141 16.4939 35.2501 16.3587 35.6753C16.1387 36.3669 14.6376 35.6717 12.4363 33.8587C11.6667 33.2247 10.8609 32.6152 10.6457 32.5042C10.1065 32.2261 10.084 31.9809 10.6142 32.1618ZM27.7474 28.6593C27.5155 28.0935 27.509 27.9266 27.7055 27.5881C27.9774 27.1193 28.5019 26.9429 29.1693 27.0955C29.6638 27.2085 29.9015 27.4398 30.0264 27.9298C30.1153 28.2781 30.0226 28.3175 29.6443 28.0924C29.4175 27.9576 29.3229 27.9718 29.1886 28.1608C29.0529 28.352 29.1036 28.6506 29.4437 29.6621C29.8625 30.9078 29.8646 30.942 29.6019 32.1685C29.4553 32.8525 29.3745 33.4353 29.4221 33.4635C29.5737 33.5539 30.3616 33.3471 30.8294 33.0944C31.4053 32.7833 31.4681 32.9897 31.0004 33.6575C30.5092 34.3591 30.0805 34.5604 29.2693 34.4701C28.8895 34.428 28.3264 34.4603 28.0178 34.542L27.4569 34.6906L27.6678 34.1136C27.7837 33.7962 28.0259 33.224 28.2058 32.8419C28.3857 32.4599 28.5392 31.8243 28.5471 31.4297C28.5605 30.7551 28.4515 30.3778 27.7474 28.6593ZM42.6961 24.8697C42.6113 24.5371 42.599 24.0189 42.669 23.718L42.796 23.1713L43.0115 23.6092C43.13 23.8501 43.2949 24.1131 43.378 24.1936C43.6409 24.4485 44.3878 24.129 45.146 23.4375C46.1908 22.4844 46.7329 22.2938 48.949 22.1004C50.0114 22.0078 50.9001 21.9435 50.9239 21.9577C50.9478 21.9717 50.6632 22.2049 50.2918 22.4758L49.6165 22.9681L49.8817 23.7396C50.0275 24.1639 50.1874 24.5351 50.237 24.5646C50.2867 24.5943 50.5147 24.4838 50.7437 24.3196C51.3126 23.9115 51.9737 24.0204 52.1072 24.5442C52.2176 24.9768 51.9074 25.3278 51.2643 25.4982C50.9165 25.5903 50.8287 25.6918 50.8591 25.9663C50.8934 26.2763 50.8016 26.3478 50.0641 26.5854C49.3822 26.8054 49.161 26.8128 48.8483 26.6269C48.6383 26.5019 48.3277 26.4364 48.1585 26.4812C47.8039 26.5751 46.7878 26.0226 46.7029 25.6898C46.6714 25.5663 46.8678 25.1493 47.1391 24.7633C47.4603 24.3064 47.546 24.0829 47.3847 24.1237C47.2485 24.158 47.0892 24.1116 47.031 24.0204C46.9565 23.904 46.6733 24.0548 46.0789 24.5275C44.9865 25.3964 43.8875 25.8286 43.2893 25.6243C42.9399 25.505 42.8189 25.3513 42.6961 24.8697ZM41.3811 26.8345C41.0856 26.1543 41.13 25.4404 41.5224 24.558C41.8592 23.8002 42.1576 23.5273 42.0884 24.0402C41.9851 24.8045 42.2106 25.5706 42.6344 25.8961C43.0553 26.2193 44.2036 26.35 44.438 26.1014C44.5049 26.0305 44.5778 26.0436 44.6 26.1305C44.6835 26.4577 43.6508 27.5148 43.1069 27.6591C42.5965 27.7946 42.5679 27.8419 42.4471 28.7558C42.0482 31.776 40.4772 35.0665 38.7157 36.571C37.4644 37.6399 36.2415 38.2914 34.7292 38.6949L33.5242 39.0164L33.0846 39.7743C32.7337 40.3791 32.5367 40.5608 32.1088 40.6742C31.8138 40.7523 31.5647 40.7854 31.5551 40.7479C31.5455 40.7103 31.6614 40.4665 31.8125 40.206C32.4908 39.0368 31.2119 37.7047 29.7762 38.085C29.1864 38.2412 29.1334 38.0029 29.6963 37.7253C30.633 37.2635 31.3225 37.188 32.2745 37.443C33.0478 37.6503 33.4291 37.6519 34.4256 37.4521C38.0332 36.7285 40.4722 33.6212 41.3737 28.6003C41.5479 27.6294 41.5496 27.2227 41.3811 26.8345ZM47.9446 25.155C47.9446 25.155 48.2963 25.167 48.3832 24.8044C48.4979 24.3253 48.3993 24.3006 48.0869 24.7302C47.9445 24.9257 47.9446 25.155 47.9446 25.155ZM49.6845 25.5959C49.9682 25.5208 49.9679 25.4902 49.6783 25.1566C49.5072 24.9595 49.307 24.7058 49.2334 24.5929C49.1439 24.4553 49.0989 24.533 49.0967 24.8293C49.0926 25.4124 49.3095 25.6953 49.6845 25.5959ZM16.4445 36.7189C16.4128 36.5948 16.4712 36.0035 16.5741 35.4049C16.7586 34.3329 17.024 34.0041 17.4896 34.2714C17.8003 34.4497 19.5663 34.4996 20.5322 34.3575C21.0578 34.28 21.9405 34.014 22.5453 33.7505C23.8302 33.1909 24.056 33.2161 24.8341 34.0069C25.5073 34.691 26.2041 35.0224 26.6953 34.8923C26.9322 34.8296 27.3886 34.9869 28.0014 35.3427L28.9432 35.8893L28.1359 35.8011C27.6918 35.7524 26.9039 35.735 26.3851 35.7624C25.5043 35.8089 25.4013 35.8471 24.8306 36.34C24.4944 36.6301 24.1923 36.8485 24.1591 36.8251C24.126 36.8018 23.9818 36.6509 23.8385 36.4897C23.6582 36.2872 23.2879 36.1924 22.6366 36.1823C22.1189 36.1739 21.7156 36.1008 21.7403 36.0197C21.7652 35.9386 22.2315 35.7529 22.7766 35.6072C23.8853 35.3108 24.1607 35.1051 23.9768 34.7112C23.8637 34.4692 23.6543 34.4867 21.8314 34.8914C20.5123 35.1842 19.4863 35.3251 18.8749 35.2977C17.8862 35.2532 17.755 35.3331 17.7621 35.9757C17.7658 36.3096 17.9007 36.4396 18.5797 36.7647C19.0271 36.9789 20.0023 37.6826 20.7471 38.3284C22.1201 39.5189 22.7813 39.8387 23.0197 39.4278C23.1124 39.2681 23.0128 39.0929 22.6298 38.7416C22.3469 38.4824 21.9358 38.1013 21.716 37.8949L21.3167 37.5196L21.7551 37.6878C23.0906 38.2 23.2474 38.2266 23.7503 38.0252C24.1621 37.8603 24.3045 37.8733 24.4793 38.0917C24.9559 38.6872 25.615 38.7857 26.9081 38.4546C28.1036 38.1487 28.6701 38.1222 28.7332 38.3696C28.7509 38.4389 28.4539 38.6001 28.0729 38.7278L27.3806 38.9601L27.5441 39.5272C27.6502 39.8958 27.6427 40.0833 27.5225 40.0631C25.3321 39.6938 25.2164 39.6947 23.893 40.0903C23.1762 40.3045 22.4527 40.4725 22.2851 40.4637C22.1176 40.455 21.4718 39.9824 20.85 39.4137C19.5022 38.1806 18.1139 37.3034 17.1814 37.0957C16.8076 37.0125 16.4761 36.843 16.4445 36.7189ZM39.7658 31.7156C39.6923 31.6719 39.6637 31.4091 39.7022 31.1315C39.7799 30.5716 39.9948 30.4092 40.102 30.8295C40.1896 31.173 39.9436 31.8215 39.7658 31.7156ZM33.1226 36.4831C35.4089 36.5034 38.2357 34.679 39.058 32.6526C39.3389 31.9603 39.3598 31.9425 39.4949 32.2779C39.6003 32.5389 39.5007 32.8713 39.1104 33.5622C38.0807 35.3852 36.6977 36.412 34.481 36.9992C33.4154 37.2814 33.0475 37.3224 32.853 37.1806C32.7148 37.0797 32.335 36.9515 32.0093 36.8954C31.4486 36.7989 31.4354 36.7849 31.7632 36.634C31.9538 36.5461 32.5654 36.4782 33.1226 36.4831ZM28.4352 40.367C28.2071 40.12 27.9728 39.7312 27.9146 39.5027L27.8086 39.0872L29.0219 38.7659C30.4886 38.3774 30.992 38.54 31.2317 39.4797C31.405 40.1592 31.005 40.8052 30.2918 40.997C29.8621 41.1126 29.8079 41.2227 29.4983 42.6103C29.1158 44.3247 28.4269 45.752 27.8341 46.0585C26.9766 46.5014 25.6157 45.9999 25.4021 45.162C25.3165 44.8265 25.5993 43.6785 25.7778 43.6374C25.8327 43.6248 26.0333 43.8061 26.2237 44.0405C26.4894 44.3678 26.6795 44.4486 27.0438 44.3896C27.4293 44.3271 27.5998 44.1682 27.9556 43.5407C28.1964 43.1161 28.4961 42.3294 28.6216 41.7924L28.8498 40.8158L28.4352 40.367ZM16.3096 45.2059C16.3058 44.9721 16.3903 44.6674 16.4973 44.5287C16.7626 44.1852 16.8306 44.1815 17.4391 44.4752C18.1126 44.8003 18.7136 44.8669 19.0826 44.6572C19.5727 44.3786 20.1569 44.4503 20.2461 44.7999C20.3316 45.1352 19.6213 46.3871 19.297 46.473C19.0077 46.5497 18.9699 46.1673 19.2276 45.7698C19.5897 45.2111 19.4414 45.1526 18.7819 45.5938C17.6719 46.3365 16.3247 46.1252 16.3096 45.2059ZM24.0351 45.1553C24.1124 44.8356 24.3013 44.4658 24.4547 44.3333C24.7323 44.0938 25.2339 43.8822 25.2621 43.9928C25.2702 44.0246 25.2266 44.2706 25.1651 44.5396C25.1038 44.8084 25.0906 45.1754 25.1358 45.3551C25.2438 45.7838 26.0513 46.3545 26.6725 46.4413C26.944 46.4795 27.1421 46.5888 27.1129 46.6845C27.0214 46.9839 25.8896 47.0203 25.2405 46.7448C24.7114 46.5203 24.4499 46.52 23.4659 46.7435C22.8312 46.8875 21.7553 47.0962 21.075 47.2071C20.2711 47.3381 19.6913 47.5083 19.4188 47.6934C19.1884 47.85 18.9851 47.9212 18.9674 47.8515C18.9178 47.6571 19.7123 46.5306 20.1812 46.1306C20.5764 45.7934 20.6449 45.7844 21.4601 45.9636C22.0661 46.0968 22.5544 46.0912 23.1077 45.9447C23.8497 45.7481 23.9021 45.7035 24.0351 45.1553ZM16.5129 49.295C15.8615 49.4676 14.6146 48.0053 14.8956 47.3986C15.2119 46.7164 16.0864 47.1028 16.3226 48.0289C16.3733 48.2278 16.4054 48.3577 16.4836 48.3996C16.6299 48.4781 16.9376 48.2481 17.8312 47.5846C18.2519 47.2723 18.6051 47.0515 18.6159 47.0941C18.6636 47.2811 18.2584 48.363 18.0733 48.5431C17.9348 48.6777 17.9173 49.0643 18.0186 49.7451C18.1881 50.8831 17.9443 51.8022 17.4376 51.9364C16.5238 52.1785 14.9605 51.417 15.2713 50.8812C15.36 50.7283 15.2919 50.5852 15.0187 50.3511C14.4706 49.8814 14.2954 49.5041 14.4463 49.1188C14.6429 48.6166 15.3433 48.7835 15.8622 49.4563L16.2666 49.9807L16.5424 49.5973C16.807 49.2298 16.8058 49.2174 16.5129 49.295ZM16.8871 50.9142C17.1772 51.0061 17.2219 50.9601 17.2567 50.5343C17.2784 50.2678 17.2849 50.0603 17.2709 50.0733C17.257 50.0865 17.0811 50.2192 16.8797 50.3683C16.4461 50.6896 16.4473 50.775 16.8871 50.9142Z" fill="#FEFEFE"/>
<path fill-rule="evenodd" clip-rule="evenodd" d="M35.5085 24.6072C35.5418 24.7379 35.6528 24.8239 35.755 24.7982C35.8879 24.7647 35.8916 24.8048 35.7681 24.9388C35.625 25.0938 35.6744 25.2031 36.0538 25.5709C36.3062 25.8155 36.6005 26.0217 36.7079 26.0293C37.1745 26.062 36.5486 26.6954 35.242 27.5125C34.021 28.2762 33.8019 28.4798 33.3704 29.2529C33.1016 29.7344 32.7648 30.6246 32.6222 31.2311C32.3337 32.4571 31.6888 33.7949 31.1495 34.2861C30.9551 34.4631 30.3764 34.7219 29.8638 34.8612C28.9579 35.1074 28.9446 35.1178 29.3908 35.2294C29.9668 35.3734 31.1042 35.2416 31.5841 34.9751C32.1532 34.6592 32.9006 33.342 33.3974 31.7791C34.1242 29.4934 34.6151 28.7946 35.9048 28.2102C36.2448 28.0561 36.7959 27.5883 37.1899 27.1193C37.5694 26.6677 38.1158 26.1217 38.404 25.9062C38.7392 25.6556 39.0047 25.2718 39.1406 24.842C39.4096 23.9903 39.3812 23.8931 38.9908 24.3294C38.6535 24.7068 37.0415 25.407 37.3455 25.0442C37.4774 24.887 37.3099 24.7924 36.6061 24.6266C36.1055 24.5087 35.6402 24.4027 35.572 24.3908C35.5038 24.379 35.4751 24.4764 35.5085 24.6072ZM36.8964 25.1222C37.0934 25.0591 37.0913 25.0457 36.8808 25.0245C36.7468 25.0109 36.4879 24.973 36.3055 24.9402C35.9791 24.8814 35.9793 24.883 36.321 25.0379C36.5121 25.1244 36.771 25.1623 36.8964 25.1222Z" fill="#FEFEFE"/>
</g>
<rect x="1" y="1" width="60.3694" height="58.2659" rx="10" stroke="white"/>
<path d="M76.8306 40.3295H71.0423L77.5637 21.2607H84.8955L91.417 40.3295H85.6287L81.3068 26.512H81.1525L76.8306 40.3295ZM75.7501 32.8062H86.632V36.6796H75.7501V32.8062Z" fill="#0E0E10"/>
<path d="M98.7223 21.2607V40.3295H93.3971V21.2607H98.7223Z" fill="#0E0E10"/>
<path d="M110.272 26.0279V29.7523H100.509V26.0279H110.272ZM102.4 22.6014H107.725V35.7299C107.725 35.9285 107.761 36.0961 107.832 36.2327C107.902 36.363 108.012 36.4623 108.16 36.5306C108.307 36.5927 108.497 36.6237 108.729 36.6237C108.89 36.6237 109.076 36.6051 109.288 36.5679C109.507 36.5306 109.668 36.4996 109.771 36.4748L110.542 40.0874C110.304 40.1557 109.964 40.2395 109.52 40.3388C109.082 40.4381 108.562 40.5033 107.957 40.5343C106.735 40.5964 105.709 40.4754 104.88 40.1712C104.05 39.8608 103.426 39.3736 103.008 38.7094C102.59 38.0452 102.387 37.2134 102.4 36.2141V22.6014Z" fill="#0E0E10"/>
<path d="M112.445 40.3295V26.0279H117.77V40.3295H112.445ZM115.108 24.5381C114.388 24.5381 113.77 24.3084 113.256 23.8491C112.741 23.3898 112.484 22.8373 112.484 22.1918C112.484 21.5462 112.741 20.9937 113.256 20.5344C113.77 20.0751 114.388 19.8454 115.108 19.8454C115.835 19.8454 116.452 20.0751 116.96 20.5344C117.475 20.9937 117.732 21.5462 117.732 22.1918C117.732 22.8373 117.475 23.3898 116.96 23.8491C116.452 24.3084 115.835 24.5381 115.108 24.5381Z" fill="#0E0E10"/>
<path d="M129.32 26.0279V29.7523H119.558V26.0279H129.32ZM121.448 22.6014H126.774V35.7299C126.774 35.9285 126.809 36.0961 126.88 36.2327C126.95 36.363 127.06 36.4623 127.208 36.5306C127.356 36.5927 127.545 36.6237 127.777 36.6237C127.938 36.6237 128.124 36.6051 128.336 36.5679C128.555 36.5306 128.716 36.4996 128.819 36.4748L129.591 40.0874C129.353 40.1557 129.012 40.2395 128.568 40.3388C128.131 40.4381 127.61 40.5033 127.005 40.5343C125.783 40.5964 124.757 40.4754 123.928 40.1712C123.098 39.8608 122.474 39.3736 122.056 38.7094C121.638 38.0452 121.436 37.2134 121.448 36.2141V22.6014Z" fill="#0E0E10"/>
<path d="M141.102 34.0725V26.0279H146.427V40.3295H141.372V37.6107H141.218C140.896 38.5232 140.333 39.237 139.53 39.7522C138.726 40.2612 137.771 40.5157 136.664 40.5157C135.629 40.5157 134.722 40.286 133.944 39.8267C133.172 39.3674 132.571 38.7342 132.14 37.9273C131.715 37.1203 131.5 36.1954 131.493 35.1526V26.0279H136.819V34.0725C136.825 34.7802 137.012 35.3357 137.378 35.7392C137.751 36.1427 138.272 36.3444 138.941 36.3444C139.385 36.3444 139.767 36.2544 140.089 36.0744C140.417 35.8882 140.668 35.6275 140.842 35.2923C141.022 34.9509 141.108 34.5443 141.102 34.0725Z" fill="#0E0E10"/>
<path d="M154.499 40.5157C153.445 40.5157 152.474 40.2488 151.586 39.715C150.705 39.1811 149.997 38.3711 149.464 37.2848C148.936 36.1985 148.673 34.8298 148.673 33.1787C148.673 31.4531 148.949 30.0502 149.502 28.9701C150.062 27.8901 150.782 27.0986 151.663 26.5958C152.551 26.093 153.483 25.8417 154.461 25.8417C155.194 25.8417 155.837 25.9658 156.39 26.2141C156.943 26.4562 157.406 26.7821 157.779 27.1917C158.152 27.5952 158.435 28.039 158.628 28.5232H158.706V21.2607H164.031V40.3295H158.744V37.9831H158.628C158.423 38.4673 158.127 38.9018 157.741 39.2867C157.361 39.6653 156.898 39.9664 156.352 40.1898C155.811 40.4071 155.194 40.5157 154.499 40.5157ZM156.467 36.5679C156.956 36.5679 157.374 36.4313 157.722 36.1582C158.075 35.8789 158.345 35.4878 158.532 34.985C158.725 34.476 158.821 33.8739 158.821 33.1787C158.821 32.4711 158.725 31.8658 158.532 31.363C158.345 30.8541 158.075 30.4661 157.722 30.1992C157.374 29.9261 156.956 29.7895 156.467 29.7895C155.979 29.7895 155.561 29.9261 155.213 30.1992C154.872 30.4661 154.609 30.8541 154.422 31.363C154.242 31.8658 154.152 32.4711 154.152 33.1787C154.152 33.8863 154.242 34.4946 154.422 35.0036C154.609 35.5064 154.872 35.8944 155.213 36.1675C155.561 36.4344 155.979 36.5679 156.467 36.5679Z" fill="#0E0E10"/>
<path d="M173.745 40.5902C172.163 40.5902 170.8 40.2985 169.655 39.715C168.517 39.1253 167.639 38.2811 167.021 37.1824C166.41 36.0775 166.105 34.7553 166.105 33.2159C166.105 31.7386 166.414 30.4475 167.031 29.3426C167.648 28.2377 168.52 27.378 169.645 26.7634C170.771 26.1489 172.099 25.8417 173.63 25.8417C174.749 25.8417 175.762 26.0093 176.668 26.3444C177.575 26.6796 178.35 27.1669 178.993 27.8063C179.637 28.4394 180.132 29.2091 180.479 30.1154C180.826 31.0216 181 32.0427 181 33.1787V34.3705H167.764V31.54H176.099C176.093 31.1303 175.984 30.7703 175.771 30.4599C175.565 30.1433 175.286 29.8981 174.932 29.7243C174.585 29.5443 174.189 29.4543 173.745 29.4543C173.314 29.4543 172.919 29.5443 172.559 29.7243C172.199 29.8981 171.909 30.1402 171.691 30.4506C171.478 30.7609 171.366 31.1241 171.353 31.54V34.594C171.353 35.0533 171.453 35.463 171.652 35.823C171.851 36.183 172.138 36.4655 172.511 36.6703C172.884 36.8751 173.334 36.9776 173.861 36.9776C174.228 36.9776 174.562 36.9279 174.864 36.8286C175.173 36.7293 175.437 36.5865 175.656 36.4003C175.874 36.2079 176.035 35.9782 176.138 35.7113H181C180.833 36.7044 180.437 37.5672 179.813 38.2997C179.19 39.026 178.363 39.5908 177.334 39.9943C176.312 40.3916 175.115 40.5902 173.745 40.5902Z" fill="#0E0E10"/>
<defs>
<clipPath id="clip0_116_238">
<rect x="1" y="1" width="60.3694" height="58.2659" rx="10" fill="white"/>
</clipPath>
</defs>
</svg>
