<svg width="24" height="24" viewBox="0 0 24 24" fill="none" xmlns="http://www.w3.org/2000/svg">
    <path d="M7.32888 10.9918L3.76478 14.2817C3.34744 14.6669 3.33435 15.322 3.73596 15.7236L4.92797 16.9156C5.32958 17.3172 5.98464 17.3041 6.36988 16.8868L9.54688 13.4451C9.61949 13.3664 9.65981 13.2633 9.65981 13.1562V13.1562M9.65981 13.1562L9.50745 13.08C9.38823 13.0204 9.28214 12.9376 9.1954 12.8364L7.409 10.7523C7.35579 10.6902 7.31039 10.6218 7.27383 10.5487L6.82939 9.65981L6.36169 8.72441C6.34053 8.68208 6.3224 8.63831 6.30743 8.59342L6.04823 7.81582C6.01424 7.71385 5.99692 7.60707 5.99692 7.49959V5.81676C5.99692 5.71546 6.01244 5.61452 6.04231 5.51773C6.41256 4.31776 6.60517 3.56717 8.16003 3.05298C8.27048 3.01645 8.38769 3.00144 8.50316 3.01559C9.90783 3.18779 10.8351 4.44048 10.9737 4.63859C10.9864 4.65671 10.9977 4.67281 11.0112 4.69031C11.173 4.90011 12.3152 6.35679 13.3227 6.99589C15.0994 8.12287 18.5182 8.01487 18.9404 7.99687C18.9692 7.99564 18.9984 7.99533 19.0272 7.99632C20.4912 8.0464 21.2636 8.20867 21.9116 9.5157C21.9586 9.61034 21.9881 9.71327 21.9945 9.81871C22.0801 11.2269 21.1466 12.4511 21.0006 12.6334C20.9875 12.6497 20.9744 12.6642 20.9598 12.6791C20.7539 12.8901 19.1233 14.5302 17.7742 14.9525C17.6932 14.9778 17.6087 14.9877 17.5238 14.9877H16.9856M9.65981 13.1562L12.9897 14.8212M12.9897 14.8212L13.1116 14.8821C13.2504 14.9515 13.4035 14.9877 13.5588 14.9877H16.9856M12.9897 14.8212V19.3155C12.9897 19.8678 13.4374 20.3155 13.9897 20.3155H16.2541C16.831 20.3155 17.2882 19.8288 17.2522 19.2531L16.9856 14.9877"
          stroke="currentColor" stroke-width="1.5"/>
    <circle cx="13" cy="10" r="0.75" stroke="currentColor" stroke-width="0.5"/>
</svg>
