<svg width="24" height="24" viewBox="0 0 24 24" fill="none" xmlns="http://www.w3.org/2000/svg">
    <path fill-rule="evenodd" clip-rule="evenodd"
          d="M3.23725 6.77322C3.18062 6.93989 3.1499 7.11853 3.1499 7.30435V16.6957C3.1499 16.9294 3.19852 17.1518 3.28619 17.3533L8.46473 12.0789C8.75492 11.7833 9.22978 11.779 9.52534 12.0692C9.82091 12.3594 9.82527 12.8342 9.53507 13.1298L4.45045 18.3086C4.56309 18.3329 4.68 18.3457 4.7999 18.3457H19.1999C19.458 18.3457 19.7024 18.2864 19.9199 18.1807C19.9109 18.1731 19.9019 18.1653 19.8931 18.1572L13.8931 12.6572C13.8077 12.5789 13.7446 12.4854 13.7041 12.3847L12.4434 13.3092C12.172 13.5082 11.8012 13.502 11.5365 13.2941L3.23725 6.77322ZM4.32819 5.72276L12.0155 11.7628L20.0357 5.88138C19.7906 5.7371 19.5049 5.65435 19.1999 5.65435H4.7999C4.63598 5.65435 4.47765 5.67825 4.32819 5.72276ZM20.8427 7.14965L14.8763 11.5251C14.8866 11.5335 14.8967 11.5424 14.9067 11.5515L20.8259 16.9775C20.8417 16.8859 20.8499 16.7917 20.8499 16.6957V7.30435C20.8499 7.25218 20.8475 7.20058 20.8427 7.14965ZM1.6499 7.30435C1.6499 5.56465 3.0602 4.15435 4.7999 4.15435H19.1999C20.9396 4.15435 22.3499 5.56465 22.3499 7.30435V16.6957C22.3499 18.4353 20.9396 19.8457 19.1999 19.8457H4.7999C3.06021 19.8457 1.6499 18.4353 1.6499 16.6957V7.30435Z"
          fill="currentColor"/>
</svg>
